<?xml version="1.0" standalone="no"?>
<!DOCTYPE svg PUBLIC "-//W3C//DTD SVG 20010904//EN"
 "http://www.w3.org/TR/2001/REC-SVG-20010904/DTD/svg10.dtd">
<svg version="1.0" xmlns="http://www.w3.org/2000/svg"
 width="256.000000pt" height="256.000000pt" viewBox="0 0 256.000000 256.000000"
 preserveAspectRatio="xMidYMid meet">

<g transform="translate(0.000000,256.000000) scale(0.100000,-0.100000)"
fill="#000000" stroke="none">
<path d="M455 2430 c-131 -42 -261 -164 -317 -299 l-23 -56 -3 -775 c-3 -750
-2 -777 17 -840 51 -168 205 -309 370 -340 33 -6 341 -10 790 -10 803 0 796 0
905 58 67 35 167 135 199 197 59 117 57 92 57 910 0 818 0 811 -57 918 -61
111 -170 200 -291 237 -62 19 -93 20 -826 19 -720 0 -764 -1 -821 -19z m1705
-870 l0 -460 -215 0 -215 0 0 65 0 65 150 0 150 0 0 330 0 330 -175 0 -175 0
0 -675 0 -675 -65 0 -65 0 0 675 0 675 -70 0 -70 0 0 65 0 65 375 0 375 0 0
-460z m-990 275 l0 -65 -225 0 -225 0 0 -500 0 -500 225 0 225 0 0 -65 0 -65
-290 0 -290 0 0 565 0 565 -95 0 -95 0 0 65 0 65 385 0 385 0 0 -65z"/>
</g>
</svg>
